<svg width="107" height="99" viewBox="0 0 107 99" fill="none" xmlns="http://www.w3.org/2000/svg">
<path d="M7.60966 49.4688C7.60851 42.1215 9.54153 34.9034 13.2144 28.5401C16.8873 22.1768 22.1706 16.8924 28.5332 13.2183C34.8958 9.54419 42.1135 7.60975 49.4608 7.60947C56.808 7.60918 64.0259 9.54305 70.3888 13.2167C71.2622 13.7133 72.2966 13.8442 73.2662 13.581C74.2358 13.3177 75.062 12.6816 75.5643 11.8115C76.0667 10.9414 76.2045 9.90793 75.9477 8.93659C75.6909 7.96524 75.0603 7.1349 74.1936 6.62676C64.7642 1.18272 53.802 -0.997883 43.0071 0.423124C32.2121 1.84413 22.1877 6.78734 14.4884 14.4861C6.78909 22.1849 1.84524 32.209 0.423538 43.0039C-0.998161 53.7988 1.18174 64.7611 6.62518 74.1908C12.0686 83.6205 20.4714 90.9906 30.5303 95.1581C40.5893 99.3256 51.7422 100.058 62.2596 97.2406C72.7769 94.4236 82.0709 88.2149 88.7001 79.5776C95.3293 70.9402 98.9233 60.3568 98.9247 49.4688C98.9247 48.4597 98.5239 47.4919 97.8103 46.7784C97.0968 46.0648 96.129 45.664 95.1199 45.664C94.1108 45.664 93.1431 46.0648 92.4295 46.7784C91.716 47.4919 91.3151 48.4597 91.3151 49.4688C91.3151 60.5688 86.9057 71.2142 79.0568 79.0631C71.2079 86.912 60.5624 91.3215 49.4624 91.3215C38.3624 91.3215 27.717 86.912 19.868 79.0631C12.0191 71.2142 7.60966 60.5688 7.60966 49.4688Z" fill="black"/>
<path d="M105.423 14.1142C105.777 13.7605 106.058 13.3405 106.249 12.8783C106.441 12.4161 106.539 11.9207 106.539 11.4204C106.539 10.9201 106.441 10.4247 106.249 9.96254C106.058 9.50034 105.777 9.08037 105.423 8.72661C105.07 8.37286 104.65 8.09225 104.187 7.9008C103.725 7.70935 103.23 7.61081 102.729 7.61081C102.229 7.61081 101.734 7.70935 101.272 7.9008C100.809 8.09225 100.389 8.37286 100.036 8.72661L49.4623 59.3076L29.3274 39.165C28.9736 38.8112 28.5537 38.5306 28.0914 38.3392C27.6292 38.1477 27.1339 38.0492 26.6336 38.0492C26.1333 38.0492 25.6379 38.1477 25.1757 38.3392C24.7135 38.5306 24.2935 38.8112 23.9398 39.165C23.586 39.5187 23.3054 39.9387 23.114 40.4009C22.9225 40.8631 22.824 41.3585 22.824 41.8588C22.824 42.3591 22.9225 42.8544 23.114 43.3166C23.3054 43.7788 23.586 44.1988 23.9398 44.5526L46.7685 67.3813C47.122 67.7357 47.5418 68.0168 48.0041 68.2086C48.4663 68.4004 48.9619 68.4991 49.4623 68.4991C49.9628 68.4991 50.4583 68.4004 50.9206 68.2086C51.3828 68.0168 51.8027 67.7357 52.1561 67.3813L105.423 14.1142Z" fill="black"/>
</svg>
