<svg width="148" height="37" viewBox="0 0 148 37" fill="none" xmlns="http://www.w3.org/2000/svg">
<path d="M138.133 19.7333C132.696 19.7333 128.267 15.3043 128.267 9.86666C128.267 4.42898 132.696 0 138.133 0C143.571 0 148 4.42898 148 9.86666C148 15.3043 143.571 19.7333 138.133 19.7333ZM138.133 1.53043C133.53 1.53043 129.785 5.27536 129.785 9.87825C129.785 14.4811 133.53 18.2261 138.133 18.2261C142.736 18.2261 146.481 14.4811 146.481 9.87825C146.481 5.27536 142.736 1.53043 138.133 1.53043Z" fill="#BEBEC1"/>
<path d="M140.652 11.1874L142.867 11.7827C142.53 12.827 141.962 13.5979 141.174 14.1054C140.386 14.6129 139.377 14.8667 138.159 14.8667C136.652 14.8667 135.423 14.4372 134.449 13.5687C133.475 12.7001 133 11.5192 133 10.0163C133 8.42552 133.487 7.19584 134.461 6.31751C135.435 5.43917 136.71 5 138.299 5C139.69 5 140.814 5.34158 141.672 6.03449C142.183 6.44438 142.577 7.02994 142.832 7.79116L140.571 8.24985C140.432 7.75212 140.154 7.36175 139.736 7.07873C139.307 6.79571 138.797 6.64932 138.183 6.64932C137.348 6.64932 136.664 6.90306 136.142 7.41055C135.62 7.91803 135.354 8.73781 135.354 9.87965C135.354 11.0898 135.609 11.9389 136.13 12.4561C136.641 12.9636 137.313 13.2271 138.136 13.2271C138.739 13.2271 139.272 13.0612 139.701 12.7391C140.142 12.3976 140.455 11.8803 140.652 11.1874Z" fill="#BEBEC1"/>
<path d="M0 0H5.90002V13.7321H21.2333V0H27.1333V34.5333H21.2333V18.9556H5.90002V34.5333H0V0Z" fill="#BEBEC1"/>
<path d="M44.9452 0H51.1983L64.1333 34.5333H57.8351L54.686 25.3979H41.2769L38.1278 34.5333H32.0667L44.9452 0ZM42.8797 20.7896H53.1284L48.0943 5.94321H47.9476L42.8797 20.7896Z" fill="#BEBEC1"/>
<path d="M66.5999 0H72.9151V21.0509C72.9151 22.2656 72.9757 23.4924 73.0969 24.7436C73.2181 25.9947 73.5454 27.1123 74.1029 28.1083C74.6605 29.1044 75.4969 29.9182 76.6241 30.562C77.7514 31.2058 79.3393 31.5216 81.3999 31.5216C83.4484 31.5216 85.0484 31.2058 86.1757 30.562C87.3029 29.9182 88.1393 29.1044 88.6969 28.1083C89.2544 27.1123 89.5938 25.9947 89.7029 24.7436C89.8241 23.4924 89.8847 22.2656 89.8847 21.0509V0H96.1999V23.128C96.1999 25.4603 95.8484 27.4767 95.1453 29.2015C94.4423 30.9264 93.4363 32.3598 92.1393 33.5259C90.8423 34.692 89.2908 35.5545 87.4726 36.1375C85.6544 36.7084 83.6302 37 81.412 37C79.1938 37 77.1696 36.7084 75.3514 36.1375C73.5332 35.5666 71.9817 34.692 70.6848 33.5259C69.3878 32.3598 68.3817 30.9143 67.6787 29.2015C66.9757 27.4767 66.612 25.4603 66.612 23.128V0H66.5999Z" fill="#BEBEC1"/>
<path d="M101.133 0H107.455V29.3098H125.8V34.5333H101.133V0Z" fill="#BEBEC1"/>
</svg>
