<svg width="24" height="24" viewBox="0 0 24 24" fill="currentColor"><path d="M22.998 6.613C22.997 5.937 22.938 5.265 22.778 4.605C22.488 3.405 21.804 2.487 20.779 1.816C20.2568 1.4793 19.6716 1.25237 19.059 1.149C18.5851 1.06756 18.1058 1.02144 17.625 1.011C17.587 1.009 17.548 1.004 17.511 1H6.488L6.072 1.023C5.387 1.063 4.706 1.137 4.062 1.392C2.835 1.877 1.952 2.723 1.434 3.939C1.258 4.351 1.166 4.788 1.101 5.231C1.049 5.589 1.02 5.95 1.009 6.313C1.009 6.341 1.002 6.369 1 6.397V17.603L1.023 17.991C1.069 18.738 1.165 19.481 1.479 20.166C2.075 21.468 3.072 22.323 4.444 22.735C4.83 22.851 5.228 22.906 5.629 22.944C6.137 22.992 6.647 23 7.157 23C10.527 23 13.897 23 17.268 22.998C17.75 22.998 18.228 22.968 18.708 22.908C19.462 22.811 20.171 22.586 20.812 22.165C21.5722 21.6737 22.1713 20.9699 22.535 20.141C22.705 19.754 22.803 19.344 22.874 18.927C22.978 18.308 23.001 17.682 23 17.057C22.998 13.575 23 10.095 22.998 6.613ZM17.11 10.271L17.109 15.507C17.109 15.89 17.056 16.265 16.886 16.613C16.622 17.155 16.189 17.495 15.614 17.658C15.294 17.749 14.967 17.802 14.634 17.817C14.2162 17.8409 13.8041 17.7108 13.4757 17.4513C13.1473 17.1918 12.9254 16.821 12.852 16.409C12.722 15.701 13.061 14.921 13.805 14.556C14.101 14.41 14.418 14.328 14.738 14.259C15.085 14.184 15.432 14.119 15.778 14.039C16.028 13.981 16.196 13.827 16.246 13.566C16.2572 13.5077 16.2625 13.4484 16.262 13.389V8.399C16.2611 8.34156 16.253 8.28445 16.238 8.229C16.202 8.091 16.101 8.007 15.959 8.015C15.8128 8.0249 15.6674 8.04495 15.524 8.075C14.827 8.213 14.131 8.355 13.434 8.495L11.301 8.925L10.041 9.18L9.998 9.192C9.744 9.262 9.652 9.378 9.64 9.64V9.76C9.639 12.146 9.64 14.531 9.638 16.915C9.638 17.301 9.595 17.682 9.441 18.04C9.186 18.628 8.734 18.994 8.126 19.171C7.80509 19.2641 7.47392 19.3171 7.14 19.329C6.72364 19.3521 6.31348 19.2202 5.98865 18.9587C5.66382 18.6972 5.44735 18.3247 5.381 17.913C5.251 17.168 5.591 16.368 6.438 16.01C6.765 15.873 7.108 15.797 7.453 15.725C7.716 15.67 7.98 15.62 8.242 15.564C8.592 15.487 8.776 15.267 8.791 14.909V14.771C8.791 12.057 8.791 9.343 8.793 6.63C8.793 6.517 8.805 6.4 8.831 6.29C8.895 6.029 9.081 5.88 9.331 5.815C9.566 5.755 9.804 5.712 10.041 5.664L12.057 5.258L14.139 4.838C14.753 4.713 15.366 4.588 15.981 4.466C16.183 4.426 16.387 4.386 16.59 4.37C16.874 4.347 17.069 4.526 17.098 4.811C17.105 4.879 17.108 4.948 17.108 5.017C17.11 6.769 17.11 8.52 17.11 10.271Z"></path></svg>